<?xml version="1.0" standalone="no"?>
<!DOCTYPE svg PUBLIC "-//W3C//DTD SVG 20010904//EN"
 "http://www.w3.org/TR/2001/REC-SVG-20010904/DTD/svg10.dtd">
<svg version="1.0" xmlns="http://www.w3.org/2000/svg"
 width="612.000000pt" height="612.000000pt" viewBox="0 0 612.000000 612.000000"
 preserveAspectRatio="xMidYMid meet">

<g transform="translate(0.000000,612.000000) scale(0.100000,-0.100000)"
fill="#000000" stroke="none">
<path d="M2875 5384 c-22 -2 -89 -11 -150 -20 -555 -77 -1077 -366 -1442 -799
-455 -538 -642 -1245 -513 -1936 172 -921 897 -1660 1810 -1848 182 -38 272
-46 495 -45 179 0 244 4 349 22 346 60 628 169 906 350 560 366 932 945 1036
1612 22 141 26 498 6 635 -62 442 -221 816 -492 1160 -90 114 -288 307 -405
396 -325 244 -685 396 -1075 454 -110 16 -437 28 -525 19z m-462 -1110 c31
-17 159 -90 667 -384 140 -81 361 -208 490 -282 599 -344 797 -461 820 -484
18 -17 25 -35 25 -63 0 -43 -19 -70 -69 -100 -46 -27 -437 -254 -806 -466
-179 -103 -399 -231 -490 -283 -590 -341 -664 -382 -696 -382 -45 0 -85 36
-93 84 -3 22 -4 554 -1 1183 l5 1145 28 24 c33 28 75 31 120 8z"/>
</g>
</svg>
